<?xml version="1.0" standalone="no"?>
<!DOCTYPE svg PUBLIC "-//W3C//DTD SVG 1.0//EN" "http://www.w3.org/TR/2001/REC-SVG-20010904/DTD/svg10.dtd">
<svg xmlns="http://www.w3.org/2000/svg" xmlns:xlink="http://www.w3.org/1999/xlink" id="body_1" width="51" height="38">

<g transform="matrix(0.04980469 0 0 0.04947917 0 0)">
    <path transform="matrix(0.7345697 0 0 0.7345697 238.702 -2.520547)"  d="M413.53 1038.7C 413.53 1038.7 423.13 668.5099 424.32 637.8799C 425.97 595.5599 435.11 398.39 435.05 394.5299C 434.94 387.7499 434.87 387.5099 433.07 387.5099C 427.2 388.27 421.86 391.24 415.97 391.93C 407.79 390.15 400.07 385.7599 393.19 381.07C 388.99 376.33 391.65 368.39 393.84 362.63C 394.34 361.34 396.32 357.54 397.52 353.79C 404.36 332.47 403.46 334.38 407.65 332.2C 414.6 329.98 421.16 335.55 426.48 339.67L426.48 339.67L429.41 342.01C 437.28 338.94 445.69 337.49 453.35 333.92C 453.54 333.79 452.1 332.04 450.14 330.04C 446.94 326.77 440.6 322.61 428.28 315.72C 425.98 314.43 402.16 296.11 395.4 289.8C 387.72 282.6299 380.59 275.43 362.27 256.3199C 338.87 231.9099 326.9399 220.0699 273.34 168.0599C 267.5 162.3999 224.04 122.9699 219.93 119.2699C 212.37 112.4399 110.79 25.24393 108.1 22.88493C 102.72 18.17393 101.52 16.50993 102.22 14.70493C 103.39 11.64593 114.79 15.73093 125.61 23.08793C 128.79 25.25393 231.42 105.6799 237.43 110.3799C 240.3 112.6199 298.66 161.4899 302.06 163.9099C 305.94 166.6699 362.93 216.0799 369.09 221.9199C 372.47 225.1199 448.75 292.3699 462.46 304.6499C 469.65 311.0899 474.64 314.9299 476.8199 315.6999C 478.6499 316.3499 480.55 317.1799 481.0299 317.5499C 481.5099 317.9199 482.7299 318.4299 483.7499 318.6799C 486.0699 319.2499 490.7199 315.4099 491.5099 312.2599C 492.5399 308.1399 503.86 285.9299 506.92 282.0099C 512.1199 275.3499 557.15 237.4699 561.4299 234.1599C 565.7099 230.8499 613.52 193.2499 615.2499 191.8099C 629.0599 180.3099 637.7499 173.7099 639.6099 173.2999C 641.2099 172.9499 642.0399 174.6899 642.0599 178.4399C 642.0699 182.4399 637.9899 189.1599 630.33 197.7499C 627.5099 200.9099 583.83 252.2699 580.84 255.3899C 577.85 258.5099 534.95 306.5899 526.2 315.3599L526.2 315.3599L510.2799 331.2999L509.5799 335.9199C 508.3199 344.2499 507.5899 346.2199 504.5699 349.5399C 502.6099 351.9299 502.3299 354.8799 502.7199 357.8999C 503.0499 360.4699 504.1699 366.8699 505.9899 373.4599C 506.5999 375.6599 522.9999 437.3199 523.5799 440.0899C 524.2899 443.4699 565.6999 565.2799 566.6299 568.1499C 567.5499 571.0199 602.5399 697.3899 603.0999 699.8099C 613.2198 736.84 621.2399 774.39 629.7399 811.8099C 630.6498 816.02 632.3398 826.7199 633.1599 834.3099C 633.0898 835.0399 632.7098 835.4999 632.0098 835.4999C 631.3298 835.4999 630.5698 834.8599 630.3198 834.09C 630.0698 833.32 628.5999 829.43 627.0498 825.46C 623.2998 815.84 620.0998 805.97 617.1998 795.08C 615.8798 790.15 594.4498 714.77 592.2498 707.04C 590.0498 699.31 552.8398 577.04 550.5298 569.75C 539.0798 533.63 507.6798 442.42 503.1398 432.06C 495.4198 413.6 488.7798 394.69 480.6198 376.41C 478.0498 370.88 476.6898 369.26 474.8998 367.99C 473.1498 366.76 471.3698 365.86 470.9398 366.01C 470.4998 366.15 469.1798 368.61 467.9898 371.47C 465.8598 376.61 465.8298 376.85 466.1098 392.32C 466.2598 400.93 477.3398 624.96 477.5298 638L477.5298 638L483.4398 1038.6C 483.4398 1038.6 413.5298 1038.7 413.5298 1038.7L413.5298 1038.7L413.53 1038.7z" stroke="none" fill="#000000" fill-rule="nonzero" />
</g>
</svg>